<?xml version="1.0" encoding="utf-8"?>
<!-- Generator: Adobe Illustrator 17.0.0, SVG Export Plug-In . SVG Version: 6.00 Build 0)  -->
<!DOCTYPE svg PUBLIC "-//W3C//DTD SVG 1.1//EN" "http://www.w3.org/Graphics/SVG/1.1/DTD/svg11.dtd">
<svg version="1.1" id="Capa_1" xmlns="http://www.w3.org/2000/svg" xmlns:xlink="http://www.w3.org/1999/xlink" x="0px" y="0px"
	 width="960px" height="560px" viewBox="0 0 960 560" enable-background="new 0 0 960 560" xml:space="preserve">
<path fill="none" stroke="#000000" stroke-miterlimit="10" d="M480,279.5c0-64.67,52.554-117,117.5-117"/>
<g id="XMLID_1_">
	<g>
		<path fill="#29ABE2" d="M597.5,162.5v234h-235c64.95,0,117.5-52.33,117.5-117S532.55,162.5,597.5,162.5z"/>
		<path fill="#F2F2F2" d="M362.5,162.5h235c-64.95,0-117.5,52.33-117.5,117s-52.55,117-117.5,117V162.5z"/>
	</g>
	<g>
		<rect x="362.5" y="162.5" fill="none" stroke="#000000" stroke-miterlimit="10" width="235" height="234"/>
		<path fill="none" stroke="#000000" stroke-miterlimit="10" d="M480,279.5c0,64.67-52.55,117-117.5,117"/>
		<path fill="none" stroke="#000000" stroke-miterlimit="10" d="M480,279.5c0-64.67,52.55-117,117.5-117"/>
	</g>
</g>
<path fill="none" stroke="#000000" stroke-miterlimit="10" d="M480,279.5c0-64.67,52.554-117,117.5-117"/>
</svg>
